<svg width="31" height="26" viewBox="0 0 31 26" fill="none" xmlns="http://www.w3.org/2000/svg">
<path fill-rule="evenodd" clip-rule="evenodd" d="M15.4611 24.855C10.8725 24.855 6.95261 24.1608 6.95261 21.3813C6.95261 18.6018 10.847 16.1821 15.4611 16.1821C20.0497 16.1821 23.9696 18.5791 23.9696 21.3572C23.9696 24.1353 20.0752 24.855 15.4611 24.855Z" stroke="#1B1C1E" stroke-width="1.74479" stroke-linecap="round" stroke-linejoin="round"/>
<path fill-rule="evenodd" clip-rule="evenodd" d="M15.4608 12.219C18.4726 12.219 20.915 9.77807 20.915 6.76624C20.915 3.75441 18.4726 1.31207 15.4608 1.31207C12.449 1.31207 10.0066 3.75441 10.0066 6.76624C9.99814 9.76674 12.4206 12.2091 15.4226 12.219H15.4608Z" stroke="#1B1C1E" stroke-width="1.74479" stroke-linecap="round" stroke-linejoin="round"/>
<path d="M24.5129 10.7214C26.2653 10.2525 27.5573 8.65451 27.5573 6.75192C27.5573 4.76717 26.1505 3.10967 24.2777 2.72717" stroke="#1B1C1E" stroke-width="1.74479" stroke-linecap="round" stroke-linejoin="round"/>
<path d="M25.3361 15.1879C27.8209 15.1879 29.9431 16.8723 29.9431 18.3768C29.9431 19.2622 29.2106 20.227 28.1 20.4876" stroke="#1B1C1E" stroke-width="1.74479" stroke-linecap="round" stroke-linejoin="round"/>
<path d="M6.41043 10.7214C4.65659 10.2525 3.36459 8.65451 3.36459 6.75192C3.36459 4.76717 4.77276 3.10967 6.64418 2.72717" stroke="#1B1C1E" stroke-width="1.74479" stroke-linecap="round" stroke-linejoin="round"/>
<path d="M5.58579 15.1879C3.10096 15.1879 0.97879 16.8723 0.97879 18.3768C0.97879 19.2622 1.71121 20.227 2.82329 20.4876" stroke="#1B1C1E" stroke-width="1.74479" stroke-linecap="round" stroke-linejoin="round"/>
</svg>
