<svg width="41" height="40" viewBox="0 0 41 40" fill="none" xmlns="http://www.w3.org/2000/svg">
<path fill-rule="evenodd" clip-rule="evenodd" d="M39.0454 25.4702C39.8714 25.5322 40.4894 26.2542 40.4274 27.0802L40.0474 32.0982C39.7334 36.2382 36.2394 39.4802 32.0894 39.4802H8.8894C4.7394 39.4802 1.2454 36.2382 0.9314 32.0982L0.5514 27.0802C0.4894 26.2542 1.1094 25.5322 1.9354 25.4702C2.7654 25.4402 3.4814 26.0262 3.5454 26.8542L3.9234 31.8702C4.1194 34.4542 6.2994 36.4802 8.8894 36.4802H32.0894C34.6794 36.4802 36.8614 34.4542 37.0554 31.8702L37.4354 26.8542C37.4994 26.0262 38.2334 25.4382 39.0454 25.4702ZM23.0698 0C26.0757 0 28.5659 2.25253 28.941 5.15805L32.88 5.1598C37.072 5.1598 40.48 8.5778 40.48 12.7818V19.6598C40.48 20.1938 40.196 20.6858 39.738 20.9538C34.8014 23.8448 28.5478 25.531 21.9891 25.756L21.9898 29.3532C21.9898 30.1812 21.3178 30.8532 20.4898 30.8532C19.6618 30.8532 18.9898 30.1812 18.9898 29.3532L18.9885 25.7565C12.4364 25.5336 6.18231 23.847 1.242 20.9538C0.782 20.6858 0.5 20.1938 0.5 19.6598V12.7618C0.5 8.5698 3.918 5.1598 8.12 5.1598L12.0386 5.15805C12.4137 2.25253 14.9039 0 17.9098 0H23.0698ZM32.88 8.1598H8.12C5.572 8.1598 3.5 10.2238 3.5 12.7618V18.7858C8.24743 21.3653 14.2325 22.7791 20.462 22.7818L20.4898 22.7792L20.512 22.78L21.4643 22.7701C27.3559 22.6297 32.9762 21.2319 37.48 18.7858V12.7818C37.48 10.2318 35.418 8.1598 32.88 8.1598ZM23.0698 3H17.9098C16.5631 3 15.4263 3.91655 15.0905 5.15856H25.8891C25.5533 3.91655 24.4165 3 23.0698 3Z" fill="#1B1C1E"/>
</svg>
