<svg width="20" height="23" viewBox="0 0 20 23" fill="none" xmlns="http://www.w3.org/2000/svg">
<path fill-rule="evenodd" clip-rule="evenodd" d="M9.7807 0.25C14.8983 0.25 19.062 4.44512 19.062 9.60212C19.062 15.9415 11.799 22.1875 9.7807 22.1875C7.76245 22.1875 0.499451 15.9415 0.499451 9.60212C0.499451 4.44512 4.66308 0.25 9.7807 0.25ZM9.7807 1.9375C5.59345 1.9375 2.18695 5.37662 2.18695 9.60212C2.18695 14.9785 8.51395 20.2165 9.7807 20.4955C11.0475 20.2154 17.3745 14.9774 17.3745 9.60212C17.3745 5.37662 13.968 1.9375 9.7807 1.9375ZM9.78183 5.875C11.7978 5.875 13.4381 7.51525 13.4381 9.53238C13.4381 11.5484 11.7978 13.1875 9.78183 13.1875C7.76583 13.1875 6.12558 11.5484 6.12558 9.53238C6.12558 7.51525 7.76583 5.875 9.78183 5.875ZM9.78183 7.5625C8.6962 7.5625 7.81308 8.44563 7.81308 9.53238C7.81308 10.618 8.6962 11.5 9.78183 11.5C10.8675 11.5 11.7506 10.618 11.7506 9.53238C11.7506 8.44563 10.8675 7.5625 9.78183 7.5625Z" fill="#1B1C1E"/>
</svg>
