<svg width="24" height="23" viewBox="0 0 24 23" fill="none" xmlns="http://www.w3.org/2000/svg">
<g clip-path="url(#clip0_2_1860)">
<path d="M23.5 11.5001C23.5 5.14878 18.3513 5.53131e-05 12 5.53131e-05C5.64872 5.53131e-05 0.5 5.14878 0.5 11.5001C0.5 17.24 4.70538 21.9976 10.2031 22.8604V14.8243H7.2832V11.5001H10.2031V8.96646C10.2031 6.08427 11.92 4.49224 14.5468 4.49224C15.805 4.49224 17.1211 4.71685 17.1211 4.71685V7.54693H15.671C14.2424 7.54693 13.7969 8.4334 13.7969 9.34284V11.5001H16.9863L16.4765 14.8243H13.7969V22.8604C19.2946 21.9976 23.5 17.24 23.5 11.5001Z" fill="#1877F2"/>
<path d="M16.4765 14.8242L16.9863 11.5H13.7969V9.34278C13.7969 8.43334 14.2424 7.54688 15.671 7.54688H17.1211V4.7168C17.1211 4.7168 15.805 4.49219 14.5468 4.49219C11.92 4.49219 10.2031 6.08422 10.2031 8.96641V11.5H7.2832V14.8242H10.2031V22.8603C10.7886 22.9522 11.3887 23 12 23C12.6113 23 13.2114 22.9522 13.7969 22.8603V14.8242H16.4765Z" fill="white"/>
</g>
<defs>
<clipPath id="clip0_2_1860">
<rect width="23" height="23" fill="white" transform="translate(0.5)"/>
</clipPath>
</defs>
</svg>
