<svg width="23" height="23" viewBox="0 0 23 23" fill="none" xmlns="http://www.w3.org/2000/svg">
<path d="M21.62 11.7395C21.62 10.992 21.5529 10.2733 21.4283 9.58325H11.5V13.661H17.1733C16.929 14.9787 16.1862 16.0951 15.0698 16.8426V19.4876H18.4767C20.47 17.6524 21.62 14.9499 21.62 11.7395Z" fill="#4285F4"/>
<path d="M11.5 22.0419C14.3463 22.0419 16.7325 21.098 18.4767 19.488L15.0698 16.843C14.1258 17.4755 12.9183 17.8492 11.5 17.8492C8.75438 17.8492 6.43042 15.9948 5.60146 13.5032H2.07959V16.2344C3.81417 19.6796 7.37917 22.0419 11.5 22.0419Z" fill="#34A853"/>
<path d="M5.60138 13.5028C5.39054 12.8703 5.27075 12.1947 5.27075 11.4999C5.27075 10.8051 5.39054 10.1295 5.60138 9.497V6.76575H2.0795C1.34159 8.23474 0.957602 9.856 0.958253 11.4999C0.958253 13.201 1.36554 14.811 2.0795 16.2341L5.60138 13.5028Z" fill="#FBBC05"/>
<path d="M11.5 5.15096C13.0477 5.15096 14.4373 5.68284 15.5298 6.72742L18.5533 3.70388C16.7277 2.00284 14.3415 0.958252 11.5 0.958252C7.37917 0.958252 3.81417 3.32054 2.07959 6.76575L5.60146 9.497C6.43042 7.00534 8.75438 5.15096 11.5 5.15096Z" fill="#EA4335"/>
</svg>
