<svg width="26" height="26" viewBox="0 0 26 26" fill="none" xmlns="http://www.w3.org/2000/svg">
<path d="M6.13075 15.9339C6.13075 17.3809 4.96459 18.5505 3.52172 18.5505C2.07885 18.5505 0.912689 17.3809 0.912689 15.9339C0.912689 14.4868 2.07885 13.3172 3.52172 13.3172H6.13075V15.9339Z" fill="#E01E5A"/>
<path d="M7.43521 15.9339C7.43521 14.4868 8.60137 13.3172 10.0442 13.3172C11.4871 13.3172 12.6533 14.4868 12.6533 15.9339V22.4755C12.6533 23.9226 11.4871 25.0921 10.0442 25.0921C8.60137 25.0921 7.43521 23.9226 7.43521 22.4755V15.9339Z" fill="#E01E5A"/>
<path d="M10.0443 5.42758C8.60146 5.42758 7.4353 4.25801 7.4353 2.81093C7.4353 1.36384 8.60146 0.194275 10.0443 0.194275C11.4872 0.194275 12.6534 1.36384 12.6534 2.81093V5.42758H10.0443Z" fill="#36C5F0"/>
<path d="M10.0443 6.75574C11.4872 6.75574 12.6533 7.9253 12.6533 9.37239C12.6533 10.8195 11.4872 11.989 10.0443 11.989H3.50198C2.0591 11.989 0.892944 10.8195 0.892944 9.37239C0.892944 7.9253 2.0591 6.75574 3.50198 6.75574H10.0443Z" fill="#36C5F0"/>
<path d="M20.5002 9.37239C20.5002 7.9253 21.6664 6.75574 23.1093 6.75574C24.5522 6.75574 25.7183 7.9253 25.7183 9.37239C25.7183 10.8195 24.5522 11.989 23.1093 11.989H20.5002V9.37239Z" fill="#2EB67D"/>
<path d="M19.1957 9.37238C19.1957 10.8195 18.0295 11.989 16.5866 11.989C15.1438 11.989 13.9776 10.8195 13.9776 9.37238V2.81093C13.9776 1.36384 15.1438 0.194275 16.5866 0.194275C18.0295 0.194275 19.1957 1.36384 19.1957 2.81093V9.37238Z" fill="#2EB67D"/>
<path d="M16.5867 19.8588C18.0295 19.8588 19.1957 21.0284 19.1957 22.4755C19.1957 23.9226 18.0295 25.0921 16.5867 25.0921C15.1438 25.0921 13.9776 23.9226 13.9776 22.4755V19.8588H16.5867Z" fill="#ECB22E"/>
<path d="M16.5866 18.5505C15.1438 18.5505 13.9776 17.3809 13.9776 15.9339C13.9776 14.4868 15.1438 13.3172 16.5866 13.3172H23.129C24.5718 13.3172 25.738 14.4868 25.738 15.9339C25.738 17.3809 24.5718 18.5505 23.129 18.5505H16.5866Z" fill="#ECB22E"/>
</svg>
