<svg width="102" height="19" viewBox="0 0 102 19" fill="none" xmlns="http://www.w3.org/2000/svg">
<path d="M6.0223 18.3537C4.32197 18.3537 2.95564 17.8982 1.9233 16.9873C0.890957 16.0562 0.374786 14.6798 0.374786 12.858H3.28963C3.28963 13.3235 3.36048 13.7689 3.50217 14.194C3.66411 14.619 3.93738 14.9733 4.32197 15.2567C4.70657 15.54 5.24298 15.6817 5.93121 15.6817C6.82186 15.6817 7.4696 15.4287 7.87444 14.9227C8.29952 14.3964 8.51207 13.4652 8.51207 12.1293V3.35437H5.05069V0.95569H11.6091V11.6435C11.6091 13.0199 11.4573 14.2142 11.1536 15.2263C10.8703 16.2384 10.3237 17.0177 9.51404 17.5642C8.70436 18.0905 7.54045 18.3537 6.0223 18.3537ZM22.5315 18.4751C19.7785 18.4751 17.6734 17.6756 16.216 16.0765C14.7585 14.4571 14.0298 12.2811 14.0298 9.54841C14.0298 7.74688 14.3436 6.18824 14.9711 4.87252C15.5986 3.53654 16.5398 2.5042 17.7948 1.77549C19.0701 1.02654 20.649 0.652061 22.5315 0.652061C25.3249 0.652061 27.4401 1.46174 28.8773 3.0811C30.3145 4.68022 31.0331 6.83599 31.0331 9.54841C31.0331 11.3095 30.7092 12.8681 30.0615 14.2243C29.4137 15.5603 28.4624 16.6027 27.2074 17.3517C25.9524 18.1007 24.3937 18.4751 22.5315 18.4751ZM22.5011 15.4996C24.3229 15.4996 25.6892 14.9328 26.6001 13.7992C27.5312 12.6657 27.9968 11.2487 27.9968 9.54841C27.9968 8.39462 27.7944 7.3724 27.3895 6.48175C26.9847 5.57086 26.3774 4.86239 25.5678 4.35634C24.7581 3.83005 23.7359 3.56691 22.5011 3.56691C20.7198 3.56691 19.3636 4.11344 18.4325 5.20651C17.5013 6.29958 17.0358 7.74688 17.0358 9.54841C17.0358 10.6617 17.2281 11.6738 17.6127 12.5847C18.0175 13.4754 18.6248 14.1838 19.4344 14.7101C20.2441 15.2364 21.2663 15.4996 22.5011 15.4996ZM33.7446 18.05V0.95569H40.5156C41.1431 0.95569 41.8313 0.996174 42.5803 1.07714C43.3495 1.15811 44.0883 1.34029 44.7968 1.62368C45.5052 1.90706 46.0821 2.35239 46.5275 2.95965C46.993 3.56691 47.2258 4.40695 47.2258 5.47977C47.2258 6.12752 47.0942 6.72466 46.8311 7.27119C46.5882 7.81772 46.1226 8.27317 45.4344 8.63752C44.7664 8.98164 43.8049 9.18406 42.5499 9.24478V9.33587C44.0073 9.37636 45.1308 9.5889 45.9202 9.9735C46.7096 10.3379 47.2562 10.8237 47.5598 11.4309C47.8634 12.0382 48.0152 12.7163 48.0152 13.4652C48.0152 14.5583 47.7723 15.4186 47.2865 16.0461C46.8007 16.6534 46.1732 17.1088 45.404 17.4124C44.6348 17.6958 43.8252 17.878 42.975 17.959C42.1451 18.0197 41.3759 18.05 40.6674 18.05H33.7446ZM36.7809 8.06063H40.1512C40.8597 8.06063 41.5176 8.02014 42.1248 7.93918C42.7523 7.85821 43.2483 7.66591 43.6126 7.36228C43.977 7.03841 44.1592 6.52224 44.1592 5.81377C44.1592 5.06481 43.9669 4.5284 43.5823 4.20453C43.2179 3.88066 42.7321 3.67824 42.1248 3.59727C41.5176 3.5163 40.8597 3.47582 40.1512 3.47582H36.7809V8.06063ZM36.8113 15.5603H40.4245C41.2139 15.5603 41.9427 15.5097 42.6106 15.4085C43.2786 15.3073 43.815 15.0846 44.2199 14.7405C44.6247 14.3761 44.8271 13.8094 44.8271 13.0402C44.8271 12.2507 44.6146 11.6738 44.1895 11.3095C43.7644 10.9249 43.2078 10.682 42.5195 10.5808C41.8313 10.4795 41.0722 10.4289 40.2423 10.4289H36.8113V15.5603ZM57.4451 18.384C56.514 18.384 55.593 18.2727 54.6821 18.05C53.7914 17.8274 52.9817 17.4833 52.253 17.0177C51.5243 16.5521 50.9474 15.9449 50.5223 15.1959C50.0973 14.4267 49.8746 13.5057 49.8543 12.4329H52.9817C52.9817 12.5341 53.0222 12.7568 53.1032 13.1009C53.1842 13.4248 53.3663 13.779 53.6497 14.1636C53.9534 14.5482 54.4189 14.8822 55.0464 15.1656C55.6942 15.449 56.5646 15.5906 57.6576 15.5906C58.8519 15.5906 59.7324 15.368 60.2992 14.9227C60.8862 14.4773 61.1797 14.0017 61.1797 13.4956C61.1797 12.9288 60.9773 12.4835 60.5725 12.1596C60.1879 11.8155 59.6616 11.5422 58.9936 11.3398C58.3459 11.1172 57.6273 10.9147 56.8378 10.7326C56.0686 10.5504 55.2893 10.348 54.4999 10.1253C53.7307 9.88241 53.0222 9.56866 52.3745 9.18406C51.747 8.77922 51.251 8.26305 50.8867 7.63555C50.5223 7.00804 50.3604 6.20849 50.4009 5.23687C50.5021 3.79969 51.1903 2.67626 52.4656 1.86658C53.7408 1.0569 55.431 0.652061 57.5362 0.652061C58.7507 0.652061 59.8741 0.874723 60.9065 1.32005C61.9591 1.74513 62.7991 2.39287 63.4266 3.26328C64.0743 4.11344 64.3982 5.20651 64.3982 6.54248H61.3923C61.3923 5.91498 61.2506 5.40893 60.9672 5.02433C60.6838 4.61949 60.3195 4.31586 59.8741 4.11344C59.4491 3.89078 58.9936 3.74908 58.5078 3.68836C58.022 3.60739 57.5868 3.56691 57.2022 3.56691C56.1901 3.56691 55.35 3.73896 54.6821 4.08308C54.0343 4.42719 53.7104 4.93324 53.7104 5.60123C53.6902 6.168 53.8825 6.62345 54.2873 6.96756C54.6922 7.31167 55.2286 7.58494 55.8966 7.78736C56.5646 7.98978 57.2933 8.17196 58.0827 8.33389C58.8722 8.49583 59.6616 8.69825 60.451 8.94115C61.2405 9.16382 61.9591 9.46745 62.6068 9.85204C63.2545 10.2164 63.7606 10.7224 64.1249 11.3702C64.4893 11.9977 64.6411 12.8175 64.5804 13.8296C64.4994 15.2668 63.8011 16.3902 62.4853 17.1999C61.1696 17.9893 59.4895 18.384 57.4451 18.384ZM74.955 18.4751C72.2021 18.4751 70.097 17.6756 68.6395 16.0765C67.1821 14.4571 66.4534 12.2811 66.4534 9.54841C66.4534 7.74688 66.7672 6.18824 67.3947 4.87252C68.0222 3.53654 68.9634 2.5042 70.2184 1.77549C71.4937 1.02654 73.0725 0.652061 74.955 0.652061C77.7484 0.652061 79.8637 1.46174 81.3009 3.0811C82.7381 4.68022 83.4567 6.83599 83.4567 9.54841C83.4567 11.3095 83.1328 12.8681 82.4851 14.2243C81.8373 15.5603 80.8859 16.6027 79.6309 17.3517C78.3759 18.1007 76.8173 18.4751 74.955 18.4751ZM74.9247 15.4996C76.7465 15.4996 78.1128 14.9328 79.0237 13.7992C79.9548 12.6657 80.4204 11.2487 80.4204 9.54841C80.4204 8.39462 80.218 7.3724 79.8131 6.48175C79.4083 5.57086 78.801 4.86239 77.9913 4.35634C77.1817 3.83005 76.1594 3.56691 74.9247 3.56691C73.1434 3.56691 71.7872 4.11344 70.856 5.20651C69.9249 6.29958 69.4593 7.74688 69.4593 9.54841C69.4593 10.6617 69.6516 11.6738 70.0362 12.5847C70.4411 13.4754 71.0483 14.1838 71.858 14.7101C72.6677 15.2364 73.6899 15.4996 74.9247 15.4996ZM97.9491 0.95569H101.168V18.05H95.2771L89.4171 2.32203H89.3563V18.05H86.1682V0.95569H91.6336L97.8883 16.6837H97.9491V0.95569Z" fill="white"/>
</svg>
