<svg width="81" height="15" viewBox="0 0 81 15" fill="none" xmlns="http://www.w3.org/2000/svg">
<path d="M5.176 14.74C3.832 14.74 2.752 14.38 1.936 13.66C1.12 12.924 0.712003 11.836 0.712003 10.396H3.016C3.016 10.764 3.072 11.116 3.184 11.452C3.312 11.788 3.528 12.068 3.832 12.292C4.136 12.516 4.56 12.628 5.104 12.628C5.808 12.628 6.32 12.428 6.64 12.028C6.976 11.612 7.144 10.876 7.144 9.82V2.884H4.408V0.987999H9.592V9.436C9.592 10.524 9.472 11.468 9.232 12.268C9.008 13.068 8.576 13.684 7.936 14.116C7.296 14.532 6.376 14.74 5.176 14.74ZM18.2254 14.836C16.0494 14.836 14.3854 14.204 13.2334 12.94C12.0814 11.66 11.5054 9.94 11.5054 7.78C11.5054 6.356 11.7534 5.124 12.2494 4.084C12.7454 3.028 13.4894 2.212 14.4814 1.636C15.4894 1.044 16.7374 0.748 18.2254 0.748C20.4334 0.748 22.1054 1.388 23.2414 2.668C24.3774 3.932 24.9454 5.636 24.9454 7.78C24.9454 9.172 24.6894 10.404 24.1774 11.476C23.6654 12.532 22.9134 13.356 21.9214 13.948C20.9294 14.54 19.6974 14.836 18.2254 14.836ZM18.2014 12.484C19.6414 12.484 20.7214 12.036 21.4414 11.14C22.1774 10.244 22.5454 9.124 22.5454 7.78C22.5454 6.868 22.3854 6.06 22.0654 5.356C21.7454 4.636 21.2654 4.076 20.6254 3.676C19.9854 3.26 19.1774 3.052 18.2014 3.052C16.7934 3.052 15.7214 3.484 14.9854 4.348C14.2494 5.212 13.8814 6.356 13.8814 7.78C13.8814 8.66 14.0334 9.46 14.3374 10.18C14.6574 10.884 15.1374 11.444 15.7774 11.86C16.4174 12.276 17.2254 12.484 18.2014 12.484ZM27.0888 14.5V0.987999H32.4408C32.9368 0.987999 33.4808 1.02 34.0728 1.084C34.6808 1.148 35.2648 1.292 35.8248 1.516C36.3848 1.74 36.8408 2.092 37.1928 2.572C37.5608 3.052 37.7448 3.716 37.7448 4.564C37.7448 5.076 37.6408 5.548 37.4328 5.98C37.2408 6.412 36.8728 6.772 36.3288 7.06C35.8008 7.332 35.0408 7.492 34.0488 7.54V7.612C35.2008 7.644 36.0888 7.812 36.7128 8.116C37.3368 8.404 37.7688 8.788 38.0088 9.268C38.2488 9.748 38.3688 10.284 38.3688 10.876C38.3688 11.74 38.1768 12.42 37.7928 12.916C37.4088 13.396 36.9128 13.756 36.3048 13.996C35.6968 14.22 35.0568 14.364 34.3848 14.428C33.7288 14.476 33.1208 14.5 32.5608 14.5H27.0888ZM29.4888 6.604H32.1528C32.7128 6.604 33.2328 6.572 33.7128 6.508C34.2088 6.444 34.6008 6.292 34.8888 6.052C35.1768 5.796 35.3208 5.388 35.3208 4.828C35.3208 4.236 35.1688 3.812 34.8648 3.556C34.5768 3.3 34.1928 3.14 33.7128 3.076C33.2328 3.012 32.7128 2.98 32.1528 2.98H29.4888V6.604ZM29.5128 12.532H32.3688C32.9928 12.532 33.5688 12.492 34.0968 12.412C34.6248 12.332 35.0488 12.156 35.3688 11.884C35.6888 11.596 35.8488 11.148 35.8488 10.54C35.8488 9.916 35.6808 9.46 35.3448 9.172C35.0088 8.868 34.5688 8.676 34.0248 8.596C33.4808 8.516 32.8808 8.476 32.2248 8.476H29.5128V12.532ZM45.8224 14.764C45.0864 14.764 44.3584 14.676 43.6384 14.5C42.9344 14.324 42.2944 14.052 41.7184 13.684C41.1424 13.316 40.6864 12.836 40.3504 12.244C40.0144 11.636 39.8384 10.908 39.8224 10.06H42.2944C42.2944 10.14 42.3264 10.316 42.3904 10.588C42.4544 10.844 42.5984 11.124 42.8224 11.428C43.0624 11.732 43.4304 11.996 43.9264 12.22C44.4384 12.444 45.1264 12.556 45.9904 12.556C46.9344 12.556 47.6304 12.38 48.0784 12.028C48.5424 11.676 48.7744 11.3 48.7744 10.9C48.7744 10.452 48.6144 10.1 48.2944 9.844C47.9904 9.572 47.5744 9.356 47.0464 9.196C46.5344 9.02 45.9664 8.86 45.3424 8.716C44.7344 8.572 44.1184 8.412 43.4944 8.236C42.8864 8.044 42.3264 7.796 41.8144 7.492C41.3184 7.172 40.9264 6.764 40.6384 6.268C40.3504 5.772 40.2224 5.14 40.2544 4.372C40.3344 3.236 40.8784 2.348 41.8864 1.708C42.8944 1.068 44.2304 0.748 45.8944 0.748C46.8544 0.748 47.7424 0.924 48.5584 1.276C49.3904 1.612 50.0544 2.124 50.5504 2.812C51.0624 3.484 51.3184 4.348 51.3184 5.404H48.9424C48.9424 4.908 48.8304 4.508 48.6064 4.204C48.3824 3.884 48.0944 3.644 47.7424 3.484C47.4064 3.308 47.0464 3.196 46.6624 3.148C46.2784 3.084 45.9344 3.052 45.6304 3.052C44.8304 3.052 44.1664 3.188 43.6384 3.46C43.1264 3.732 42.8704 4.132 42.8704 4.66C42.8544 5.108 43.0064 5.468 43.3264 5.74C43.6464 6.012 44.0704 6.228 44.5984 6.388C45.1264 6.548 45.7024 6.692 46.3264 6.82C46.9504 6.948 47.5744 7.108 48.1984 7.3C48.8224 7.476 49.3904 7.716 49.9024 8.02C50.4144 8.308 50.8144 8.708 51.1024 9.22C51.3904 9.716 51.5104 10.364 51.4624 11.164C51.3984 12.3 50.8464 13.188 49.8064 13.828C48.7664 14.452 47.4384 14.764 45.8224 14.764ZM59.6629 14.836C57.4869 14.836 55.8229 14.204 54.6709 12.94C53.5189 11.66 52.9429 9.94 52.9429 7.78C52.9429 6.356 53.1909 5.124 53.6869 4.084C54.1829 3.028 54.9269 2.212 55.9189 1.636C56.9269 1.044 58.1749 0.748 59.6629 0.748C61.8709 0.748 63.5429 1.388 64.6789 2.668C65.8149 3.932 66.3829 5.636 66.3829 7.78C66.3829 9.172 66.1269 10.404 65.6149 11.476C65.1029 12.532 64.3509 13.356 63.3589 13.948C62.3669 14.54 61.1349 14.836 59.6629 14.836ZM59.6389 12.484C61.0789 12.484 62.1589 12.036 62.8789 11.14C63.6149 10.244 63.9829 9.124 63.9829 7.78C63.9829 6.868 63.8229 6.06 63.5029 5.356C63.1829 4.636 62.7029 4.076 62.0629 3.676C61.4229 3.26 60.6149 3.052 59.6389 3.052C58.2309 3.052 57.1589 3.484 56.4229 4.348C55.6869 5.212 55.3189 6.356 55.3189 7.78C55.3189 8.66 55.4709 9.46 55.7749 10.18C56.0949 10.884 56.5749 11.444 57.2149 11.86C57.8549 12.276 58.6629 12.484 59.6389 12.484ZM77.8383 0.987999H80.3823V14.5H75.7263L71.0943 2.068H71.0463V14.5H68.5263V0.987999H72.8463L77.7903 13.42H77.8383V0.987999Z" fill="#1B1C1E"/>
</svg>
