<svg width="32" height="44" viewBox="0 0 32 44" fill="none" xmlns="http://www.w3.org/2000/svg">
<path fill-rule="evenodd" clip-rule="evenodd" d="M16.1891 41.3238C8.80545 41.3238 2.5 40.1748 2.5 35.5733C2.5 30.9717 8.76545 26.7238 16.1891 26.7238C23.5727 26.7238 29.8782 30.9305 29.8782 35.5321C29.8782 40.1318 23.6127 41.3238 16.1891 41.3238Z" stroke="#1B1C1E" stroke-width="4" stroke-linecap="round" stroke-linejoin="round"/>
<path fill-rule="evenodd" clip-rule="evenodd" d="M16.1746 20.3473C21.0201 20.3473 24.9473 16.42 24.9473 11.5745C24.9473 6.72909 21.0201 2.8 16.1746 2.8C11.3292 2.8 7.40001 6.72909 7.40001 11.5745C7.3837 16.4036 11.2837 20.3309 16.1128 20.3473C16.1346 20.3473 16.1546 20.3473 16.1746 20.3473Z" stroke="#1B1C1E" stroke-width="4" stroke-linecap="round" stroke-linejoin="round"/>
</svg>
