<svg width="20" height="19" viewBox="0 0 20 19" fill="none" xmlns="http://www.w3.org/2000/svg">
<path d="M4.94 2.50002C4.93974 3.03046 4.72877 3.53906 4.35351 3.91394C3.97825 4.28883 3.46944 4.49929 2.939 4.49902C2.40857 4.49876 1.89997 4.28779 1.52508 3.91253C1.1502 3.53727 0.939737 3.02846 0.940003 2.49802C0.940268 1.96759 1.15124 1.45899 1.5265 1.0841C1.90176 0.709218 2.41057 0.498758 2.941 0.499024C3.47144 0.499289 3.98004 0.710257 4.35492 1.08552C4.72981 1.46078 4.94027 1.96959 4.94 2.50002ZM5 5.98002H1V18.5H5V5.98002ZM11.32 5.98002H7.34V18.5H11.28V11.93C11.28 8.27002 16.05 7.93002 16.05 11.93V18.5H20V10.57C20 4.40002 12.94 4.63002 11.28 7.66002L11.32 5.98002Z" fill="white"/>
</svg>
