<svg width="22" height="17" viewBox="0 0 22 17" fill="none" xmlns="http://www.w3.org/2000/svg">
<path d="M18.27 1.83005C16.94 1.21005 15.5 0.760046 14 0.500046C13.9868 0.499625 13.9738 0.502093 13.9617 0.507277C13.9496 0.51246 13.9388 0.520233 13.93 0.530046C13.75 0.860046 13.54 1.29005 13.4 1.62005C11.809 1.38005 10.191 1.38005 8.6 1.62005C8.46 1.28005 8.25 0.860046 8.06 0.530046C8.05 0.510046 8.02 0.500046 7.99 0.500046C6.49 0.760046 5.06 1.21005 3.72 1.83005C3.71 1.83005 3.7 1.84005 3.69 1.85005C0.969995 5.92005 0.219995 9.88004 0.589995 13.8C0.589995 13.82 0.599995 13.84 0.619995 13.85C2.42 15.17 4.15 15.97 5.86 16.5C5.89 16.51 5.91999 16.5 5.93 16.48C6.33 15.93 6.69 15.35 7 14.74C7.02 14.7 7 14.66 6.96 14.65C6.39 14.43 5.85 14.17 5.32 13.87C5.28 13.85 5.27999 13.79 5.31 13.76C5.42 13.68 5.52999 13.59 5.64 13.51C5.66 13.49 5.69 13.49 5.71 13.5C9.15 15.07 12.86 15.07 16.26 13.5C16.28 13.49 16.31 13.49 16.33 13.51C16.44 13.6 16.55 13.68 16.66 13.77C16.7 13.8 16.7 13.86 16.65 13.88C16.13 14.19 15.58 14.44 15.01 14.66C14.97 14.67 14.96 14.72 14.97 14.75C15.29 15.36 15.65 15.94 16.04 16.49C16.07 16.5 16.1 16.51 16.13 16.5C17.85 15.97 19.58 15.17 21.38 13.85C21.4 13.84 21.41 13.82 21.41 13.8C21.85 9.27004 20.68 5.34005 18.31 1.85005C18.3 1.84005 18.29 1.83005 18.27 1.83005ZM7.52 11.41C6.49 11.41 5.63 10.46 5.63 9.29005C5.63 8.12005 6.47 7.17005 7.52 7.17005C8.58 7.17005 9.42 8.13005 9.41 9.29005C9.41 10.46 8.57 11.41 7.52 11.41ZM14.49 11.41C13.46 11.41 12.6 10.46 12.6 9.29005C12.6 8.12005 13.44 7.17005 14.49 7.17005C15.55 7.17005 16.39 8.13005 16.38 9.29005C16.38 10.46 15.55 11.41 14.49 11.41Z" fill="white"/>
</svg>
