<svg width="41" height="31" viewBox="0 0 51 51" fill="none" xmlns="http://www.w3.org/2000/svg">
<path d="M23.7639 19.3194L17.5833 24.1111C16.9583 21.75 14.875 19.9444 12.3056 19.9444H7.86111V30.9167H12.3056C14.875 30.9167 17.0972 29.1806 17.5833 26.75L23.7639 31.5417L29.9444 26.75V30.9167H36.9583V28.6944H32.375V19.9444H29.8056V24.1111L23.9028 28.9028L22.6528 27.7917L25.5 25.5L28.5556 23.1389L26.8194 21.6806L20.9167 26.2639L19.6667 25.1528L25.5694 20.7083L23.7639 19.3194ZM10.2222 22.1667H12.1667C12.5833 22.1667 12.9306 22.2361 13.2778 22.4444C13.625 22.5833 13.9722 22.8611 14.25 23.1389C14.5278 23.4167 14.7361 23.7639 14.9444 24.1806C15.1528 24.5972 15.2222 25.0139 15.2222 25.5C15.2222 25.9167 15.1528 26.3333 15.0139 26.75C14.875 27.1667 14.6667 27.5139 14.3889 27.7917C14.1111 28.0694 13.7639 28.3472 13.4167 28.5556C13.0694 28.7639 12.6528 28.8333 12.2361 28.8333H10.2222V22.1667ZM44.9444 28.6944V30.9167H37.9306V19.9444H40.5V28.6944H44.9444ZM25.5 0.5C11.8194 0.5 0.5 11.8194 0.5 25.5C0.5 39.1806 11.6806 50.5 25.5 50.5C39.3194 50.5 50.5 39.3194 50.5 25.5C50.5 11.6806 39.1806 0.5 25.5 0.5ZM25.5 3.06944C27.0278 3.06944 28.5556 3.20833 30.0139 3.55556C31.4722 3.83333 32.8611 4.31944 34.25 4.875C35.5694 5.43056 36.8889 6.125 38.0694 6.95833C39.25 7.79167 40.3611 8.69444 41.4028 9.66667C42.4444 10.6389 43.3472 11.8194 44.1111 13C44.9444 14.1806 45.6389 15.5 46.1944 16.8194C46.75 18.1389 47.2361 19.5972 47.5139 21.0556C47.7917 22.5139 48 24.0417 48 25.5694C48 27.0972 47.8611 28.625 47.5139 30.0833C47.2361 31.5417 46.75 32.9306 46.1944 34.3194C45.6389 35.6389 44.9444 36.9583 44.1111 38.1389C43.2778 39.3194 42.375 40.4306 41.4028 41.4722C40.4306 42.5139 39.25 43.4167 38.0694 44.1806C36.8889 45.0139 35.5694 45.7083 34.25 46.2639C32.9306 46.8194 31.4722 47.3056 30.0139 47.5833C28.5556 47.8611 27.0278 48.0694 25.5 48.0694C23.9722 48.0694 22.4444 47.9306 20.9861 47.5833C19.5278 47.3056 18.1389 46.8194 16.75 46.2639C15.4306 45.7083 14.1111 45.0139 12.9306 44.1806C11.75 43.3472 10.6389 42.4444 9.59722 41.4722C8.55556 40.5 7.65278 39.3194 6.88889 38.1389C6.05556 36.9583 5.36111 35.6389 4.80556 34.3194C4.25 33 3.76389 31.5417 3.48611 30.0833C3.20833 28.625 3 27.0972 3 25.5694C3 24.0417 3.13889 22.5139 3.48611 21.0556C3.76389 19.5972 4.25 18.2083 4.80556 16.8194C5.36111 15.5 6.05556 14.1806 6.88889 13C7.72222 11.8194 8.625 10.7083 9.59722 9.66667C10.5694 8.625 11.75 7.72222 12.9306 6.95833C14.1111 6.125 15.4306 5.43056 16.75 4.875C18.0694 4.31944 19.5278 3.83333 20.9861 3.55556C22.4444 3.20833 23.9722 3.06944 25.5 3.06944Z" fill="#0076CE"/>
</svg>
